<svg width="52" height="65" viewBox="0 0 52 65" fill="none" xmlns="http://www.w3.org/2000/svg">
<path opacity="0.8" fill-rule="evenodd" clip-rule="evenodd" d="M21.0052 14.4167V12.5C21.0052 9.73857 23.2438 7.49999 26.0052 7.49999C28.7666 7.49999 31.0052 9.73856 31.0052 12.5V14.4167H21.0052ZM13.6719 15.5834V14.4167V12.5C13.6719 5.68848 19.1937 0.166656 26.0052 0.166656C32.8167 0.166656 38.3385 5.68848 38.3385 12.5V14.4167V15.5834H44.9892C46.889 15.5834 48.4742 17.0345 48.6416 18.9269L51.6514 52.9473C52.2206 59.3799 47.152 64.9167 40.6942 64.9167H11.3094C4.85169 64.9167 -0.216867 59.3799 0.352244 52.9473L3.36211 18.9269C3.52954 17.0345 5.1147 15.5834 7.01451 15.5834H13.6719ZM7.65704 53.5936L10.3711 22.9167H41.6326L44.3466 53.5935C44.5364 55.7378 42.8468 57.5834 40.6942 57.5834H11.3094C9.15686 57.5834 7.46734 55.7378 7.65704 53.5936Z" fill="#CACACA"/>
</svg>
